<svg xmlns="http://www.w3.org/2000/svg" xmlns:xlink="http://www.w3.org/1999/xlink" width="24" height="24" viewBox="0 0 24 24">
    <defs>
        <path id="a" d="M8 14h8a5 5 0 0 1 4.995 4.783L21 19v2a1 1 0 0 1-1.993.117L19 21v-2a3 3 0 0 0-2.824-2.995L16 16H8a3 3 0 0 0-2.995 2.824L5 19v2a1 1 0 0 1-1.993.117L3 21v-2a5 5 0 0 1 4.783-4.995L8 14h8zm4-12a5 5 0 1 1 0 10 5 5 0 0 1 0-10zm0 2a3 3 0 1 0 0 6 3 3 0 0 0 0-6z"/>
    </defs>
    <g fill="none" fill-rule="evenodd">
        <mask id="b" fill="#fff">
            <use xlink:href="#a"/>
        </mask>
        <use fill="#fff" fill-rule="nonzero" xlink:href="#a"/>
        <g fill="#fff" mask="url(#b)">
            <path d="M0 0h24v24H0z"/>
        </g>
    </g>
</svg>
